<svg xmlns="http://www.w3.org/2000/svg" viewBox="0 0 2072 2072"><path fill="#f0bf1a" d="M1828.9 426.6A998.4 998.4 0 0 0 1036 36a1000.2 1000.2 0 0 0-899.5 562.5h1327.6c146.4 0 277.2-67 364.8-171.9z"/><path fill="#3ebeb0" d="M1832.4 1640.8a473.8 473.8 0 0 0-362-167.3H136.5A1000.2 1000.2 0 0 0 1036 2036c325 0 613.7-155 796.4-395.2z"/><path fill="#07a5de" d="M1632.9 1036a280 280 0 0 0-281.2-281.2H76.1C50 844 36 938.3 36 1036s14 192 40.1 281.2h1275.5a282 282 0 0 0 281.3-281.2z"/><path fill="#231f20" d="M945.4 1036c0-103.1-12.5-196.9-34.4-281.2H76.1C50 844 36 938.3 36 1036s14 192 40.1 281.2H911a1116.2 1116.2 0 0 0 34.4-281.2z"/><path fill="#d7a229" d="M532.9 170.4A1029 1029 0 0 0 136 598.5h737.5c-75-171.9-193.8-315.6-340.6-428.1z"/><path fill="#019b8f" d="M136 1473.5a1030.4 1030.4 0 0 0 428.1 443.8 1113.2 1113.2 0 0 0 331.2-443.8H136z"/></svg>