<svg xmlns="http://www.w3.org/2000/svg" viewBox="0 0 400 400"><path fill="#e535ab" d="M356.7 250.2c-2.9-1.7-6-2.9-9.2-3.7v-93A35 35 0 1 0 314 95.6l-80.5-46.5a34.9 34.9 0 1 0-67-.1L86 95.5a35 35 0 1 0-33.5 58v93a35 35 0 1 0 33.5 58l80.5 46.5a34.9 34.9 0 1 0 66.6-1.1l80-46.2a35 35 0 1 0 43.6-53.5zm-262 22a36.2 36.2 0 0 0-9.8-17L190.3 72.6a34.5 34.5 0 0 0 19.4 0l105.4 182.6a33.4 33.4 0 0 0-9.8 17H94.7zM305.8 110a34.8 34.8 0 0 0 25.1 43.4v93.2a5 5 0 0 0-1.3.4L224.1 64.3l.9-.9 80.8 46.6zM174.9 63.4l1 1L70.5 246.9l-1.4-.4v-93.2a34.7 34.7 0 0 0 25.1-43.4l80.7-46.5zm50.9 274a34.9 34.9 0 0 0-50.9-.7l-80.6-46.5.4-1.3h210.7l.6 2.3-80.2 46.2z"/></svg>