<svg xmlns="http://www.w3.org/2000/svg" viewBox="0 0 760 760"><path fill="#fff" d="M737.4 319.7a15 15 0 0 0-10-5.9l-86.8-13.3a282.5 282.5 0 0 0-19.4-46.5c5.7-7.9 14.2-19.1 25.6-33.4 11.4-14.4 19.4-24.9 24.2-31.5 2.5-3.5 3.8-7.1 3.8-10.9 0-4.4-1.1-7.9-3.3-10.4-11.4-16.1-37.5-43-78.3-80.6a18 18 0 0 0-11.9-4.7c-4.7 0-8.5 1.4-11.4 4.3l-67.4 50.8c-13-6.6-27.2-12.5-42.7-17.6l-13.3-87.3c-.3-4.1-2.1-7.5-5.5-10.2s-7.2-4-11.6-4H324.3c-9.2 0-14.9 4.4-17.1 13.3a784 784 0 0 0-13.8 88.2 271.7 271.7 0 0 0-43.2 18l-65.5-50.8a19.8 19.8 0 0 0-12.3-4.7c-7 0-21.9 11.3-44.8 33.9s-38.5 39.6-46.7 51a20.3 20.3 0 0 0-4.3 10.9c0 3.8 1.6 7.6 4.7 11.4 21.2 25.6 38.1 47.4 50.8 65.5a232.6 232.6 0 0 0-18.5 43.6l-88.2 13.3a14 14 0 0 0-9 6.2 18.5 18.5 0 0 0-3.8 10.9v105.3a18 18 0 0 0 3.8 11.1 15 15 0 0 0 10 5.9l86.8 12.8a237.4 237.4 0 0 0 19.4 47c-5.7 7.9-14.2 19.1-25.6 33.4s-19.4 24.9-24.2 31.5a18.5 18.5 0 0 0-.5 21.8c12.3 17.1 38.4 43.6 78.3 79.7 3.5 3.5 7.4 5.2 11.9 5.2a17 17 0 0 0 11.9-4.3l66.9-50.8c13 6.6 27.2 12.5 42.7 17.6l13.3 87.3c.3 4.1 2.1 7.5 5.5 10.2s7.2 4 11.6 4h105.3c9.2 0 14.9-4.4 17.1-13.3a784 784 0 0 0 13.8-88.2 271.7 271.7 0 0 0 43.2-18l65.5 51.2c4.4 2.8 8.5 4.3 12.3 4.3 7 0 21.8-11.2 44.6-33.7s38.4-39.5 47-51.2c2.8-3.2 4.3-6.8 4.3-10.9 0-4.1-1.6-8.1-4.7-11.9a1147.1 1147.1 0 0 1-50.8-65.5 305.2 305.2 0 0 0 18.5-43.2l87.8-13.3c3.8-.6 7-2.7 9.5-6.2s3.8-7.1 3.8-10.9V330.9c-.4-4.1-1.7-7.9-4.2-11.2zM462.8 468.4c-23.7 23.7-52.3 35.6-85.9 35.6s-62.1-11.9-85.9-35.6c-23.7-23.7-35.6-52.3-35.6-85.9s11.9-62.1 35.6-85.9c23.7-23.7 52.3-35.6 85.9-35.6s62.1 11.9 85.9 35.6c23.7 23.7 35.6 52.3 35.6 85.9s-11.9 62.2-35.6 85.9z"/></svg>